<svg xmlns="http://www.w3.org/2000/svg" xmlns:xlink="http://www.w3.org/1999/xlink" style="display:none">
  <!-- Apple Icon -->
  <symbol id="apple" viewBox="0 0 24 24">
		<path id="_Path_" d="M18.546,12.763c0.024-1.87,1.004-3.597,2.597-4.576c-1.009-1.442-2.64-2.323-4.399-2.378    c-1.851-0.194-3.645,1.107-4.588,1.107c-0.961,0-2.413-1.088-3.977-1.056C6.122,5.927,4.25,7.068,3.249,8.867    c-2.131,3.69-0.542,9.114,1.5,12.097c1.022,1.461,2.215,3.092,3.778,3.035c1.529-0.063,2.1-0.975,3.945-0.975    c1.828,0,2.364,0.975,3.958,0.938c1.64-0.027,2.674-1.467,3.66-2.942c0.734-1.041,1.299-2.191,1.673-3.408    C19.815,16.788,18.548,14.879,18.546,12.763z"/>
		<path id="_Path_2" d="M15.535,3.847C16.429,2.773,16.87,1.393,16.763,0c-1.366,0.144-2.629,0.797-3.535,1.829    c-0.895,1.019-1.349,2.351-1.261,3.705C13.352,5.548,14.667,4.926,15.535,3.847z"/>
  </symbol>
  <!-- Apple-Pay Icon -->
  <symbol id="apple-pay" viewBox="0 0 24 24">
		<g>
			<path d="M4.536,8.222C4.818,7.869,5.01,7.394,4.96,6.91C4.546,6.93,4.041,7.182,3.749,7.536C3.487,7.839,3.254,8.333,3.315,8.798     C3.779,8.838,4.243,8.566,4.536,8.222L4.536,8.222z"/>
			<path d="M4.954,8.889c-0.674-0.04-1.248,0.383-1.57,0.383c-0.322,0-0.815-0.362-1.349-0.353c-0.694,0.01-1.338,0.403-1.691,1.027     c-0.725,1.249-0.191,3.101,0.513,4.118c0.342,0.503,0.755,1.057,1.298,1.037c0.513-0.02,0.715-0.332,1.339-0.332     c0.624,0,0.805,0.332,1.348,0.322c0.564-0.01,0.916-0.503,1.258-1.007c0.393-0.574,0.553-1.127,0.563-1.158     c-0.01-0.01-1.087-0.423-1.097-1.661c-0.01-1.037,0.845-1.53,0.886-1.561C5.971,8.99,5.216,8.909,4.954,8.889L4.954,8.889z"/>
		</g>
		<g>
			<path d="M10.826,7.485c1.466,0,2.486,1.01,2.486,2.481c0,1.476-1.042,2.492-2.523,2.492H9.166v2.581H7.994V7.485H10.826z      M9.166,11.474h1.345c1.021,0,1.602-0.55,1.602-1.502c0-0.953-0.581-1.497-1.596-1.497h-1.35V11.474z"/>
			<path d="M13.618,13.474c0-0.963,0.738-1.555,2.047-1.628l1.507-0.089v-0.424c0-0.612-0.414-0.979-1.104-0.979     c-0.654,0-1.063,0.314-1.162,0.806h-1.068c0.063-0.995,0.911-1.727,2.272-1.727c1.335,0,2.188,0.707,2.188,1.811v3.795h-1.084     v-0.906h-0.026c-0.319,0.612-1.015,1-1.738,1C14.372,15.133,13.618,14.463,13.618,13.474z M17.172,12.976v-0.434l-1.356,0.084     c-0.675,0.047-1.057,0.345-1.057,0.817c0,0.481,0.398,0.796,1.005,0.796C16.555,14.238,17.172,13.693,17.172,12.976z"/>
			<path d="M19.321,17.064v-0.916c0.084,0.021,0.272,0.021,0.366,0.021c0.523,0,0.806-0.22,0.979-0.785c0-0.01,0.1-0.335,0.1-0.34     l-1.989-5.512h1.225l1.392,4.481h0.021l1.392-4.481H24l-2.062,5.794c-0.471,1.335-1.015,1.764-2.156,1.764     C19.687,17.09,19.404,17.08,19.321,17.064z"/>
		</g>
  </symbol>
  <!-- Bitcoin Icon -->
  <symbol id="bitcoin" viewBox="0 0 24 24">
    <g transform="translate(-289.60744,-341.50536)">
      <g transform="matrix(0.61129216,0,0,0.61129216,170.80346,315.53734)">
        <path fill="#f59e0b" d="M217.71,66.215c-0.666,2.675-5.168,1.229-6.628,0.866l1.182-4.741C213.724,62.704,218.406,63.426,217.71,66.215z"/>
        <path fill="#f59e0b" d="M218.376,59.276c-0.607,2.432-4.355,1.196-5.571,0.893l1.072-4.3C215.094,56.172,219.009,56.738,218.376,59.276z"/>
        <path fill="#f59e0b" d="M218.725,43.068c-10.514-2.622-21.166,3.779-23.786,14.296c-2.623,10.515,3.777,21.167,14.29,23.79    c10.517,2.623,21.169-3.778,23.79-14.294C235.642,56.343,229.242,45.69,218.725,43.068z M209.939,55.724    c0.027-0.458-0.131-1.035-1.004-1.253c0.034-0.022-1.564-0.389-1.564-0.389l0.574-2.3l2.97,0.742l-0.002,0.012    c0.446,0.11,0.906,0.216,1.376,0.323l0.883-3.537l2.152,0.537l-0.865,3.468c0.577,0.132,1.159,0.265,1.725,0.406l0.859-3.445    l2.154,0.537l-0.882,3.538c2.719,0.937,4.708,2.341,4.317,4.953c-0.283,1.912-1.343,2.838-2.75,3.162    c1.932,1.006,2.915,2.549,1.978,5.224c-1.162,3.322-3.924,3.602-7.597,2.907l-0.891,3.572l-2.154-0.537l0.88-3.523    c-0.558-0.139-1.129-0.286-1.716-0.446l-0.883,3.54l-2.152-0.537l0.892-3.579c-0.503-0.129-1.014-0.265-1.536-0.396l-2.803-0.699    l1.069-2.465c0,0,1.587,0.422,1.566,0.391c0.61,0.15,0.88-0.247,0.987-0.512L209.939,55.724z"/>
      </g>
    </g>
  </symbol> 
  <!-- CSS Icon -->
  <symbol id="css" viewBox="0 0 1000 1000">
    <path fill="#639" d="M0 0h840a160 160 0 0 1 160 160v680a160 160 0 0 1-160 160H160A160 160 0 0 1 0 840V0Z"/>
    <path fill="#fff" d="M816.54 919.9c-32.39 0-57.16-9.42-74.5-28.35-17.15-19.03-26.08-46.18-26.88-81.64h69.8c.4 31.36 11.42 47.08 33.08 47.08 11.04 0 18.86-3.5 23.37-10.42 4.41-6.9 6.72-17.93 6.72-33.05 0-12.02-3.01-22.04-8.83-29.95a73.2 73.2 0 0 0-29.48-21.14L783.95 750c-23.06-11.02-39.81-24.04-50.14-39.27-10.03-15.13-15.04-36.36-15.04-63.5 0-30.36 8.83-55 26.37-73.94 18.05-18.93 42.62-28.34 74-28.34 30.3 0 53.76 9.31 70.3 27.84 16.85 18.64 25.67 45.28 26.38 80.14h-67.19c.4-11.4-1.9-22.72-6.72-33.06-3.8-7.6-11.23-11.41-22.26-11.41-19.65 0-29.48 11.71-29.48 35.05 0 11.83 2.4 21.04 7.22 28.05A65.18 65.18 0 0 0 822.76 689l24.77 10.92c25.57 11.72 44.02 26.05 55.35 43.38 11.43 17.23 17.05 40.27 17.05 69.12 0 34.56-9.03 61.1-27.38 79.63-18.25 18.53-43.62 27.85-76 27.85Zm-225.42 0c-32.4 0-57.16-9.42-74.51-28.35-17.15-19.03-26.07-46.18-26.87-81.64h69.79c.4 31.36 11.43 47.08 33.1 47.08 11.02 0 18.84-3.5 23.25-10.42 4.52-6.9 6.72-17.93 6.72-33.05 0-12.02-2.9-22.04-8.72-29.95a73.2 73.2 0 0 0-29.48-21.14L558.53 750c-23.07-11.02-39.81-24.04-50.14-39.27-10.03-15.13-15.04-36.36-15.04-63.5 0-30.36 8.82-55 26.37-73.94 18.05-18.93 42.62-28.34 74-28.34 30.29 0 53.75 9.31 70.2 27.84 17.05 18.64 25.77 45.28 26.47 80.14h-67.18c.4-11.4-1.9-22.72-6.72-33.06-3.81-7.6-11.23-11.41-22.26-11.41-19.66 0-29.49 11.71-29.49 35.05 0 11.83 2.41 21.04 7.22 28.05A65.18 65.18 0 0 0 597.33 689l24.77 10.92c25.57 11.72 44.02 26.05 55.36 43.38 11.33 17.23 17.04 40.27 17.04 69.12 0 34.56-9.12 61.1-27.37 79.63-18.25 18.53-43.62 27.85-76.01 27.85Zm-234.75 0c-31.7 0-56.86-8.62-75.51-25.85-18.65-17.12-27.88-42.87-27.88-76.93V648.83c0-33.85 9.83-59.5 29.48-77.13 19.96-17.43 46.13-26.24 78.52-26.24 31.39 0 56.15 9.01 74.5 26.84 18.56 17.93 27.88 44.58 27.88 80.14v13.32h-73.9v-12.92c0-13.72-3.01-23.84-8.83-30.45a26.46 26.46 0 0 0-21.66-10.32c-12.03 0-20.55 4.1-25.37 12.42a79.04 79.04 0 0 0-6.72 36.66v146.26c0 30.55 10.74 46.08 32.1 46.38 10.02 0 17.54-3.61 22.76-10.82a51.74 51.74 0 0 0 7.72-30.46V801.6h73.9v11.42c0 23.74-4.61 43.57-13.94 59.4a88.8 88.8 0 0 1-38.2 35.66 121.46 121.46 0 0 1-54.85 11.82Z"/>
  </symbol> 
  <!-- Dev Icon -->
  <symbol id="dev" viewBox="0 0 24 24">
    <path fill="#2f5bd3" d="M6.435,9.444C6.227,9.289,6.019,9.211,5.811,9.211H4.877v5.597h0.935c0.208,0,0.416-0.078,0.624-0.233  c0.208-0.155,0.312-0.388,0.312-0.7v-3.731C6.747,9.833,6.642,9.599,6.435,9.444L6.435,9.444z M21.648,0H2.352  C1.055,0,0.003,1.049,0,2.346v19.307C0.003,22.951,1.055,24,2.352,24h19.296c1.297,0,2.349-1.049,2.352-2.346V2.346  C23.997,1.049,22.945,0,21.648,0z M8.261,13.885c0,1.008-0.622,2.534-2.591,2.531H3.184V7.552h2.538  c1.899,0,2.537,1.525,2.538,2.533L8.261,13.885L8.261,13.885z M13.654,9.136H10.8v2.058h1.745v1.584H10.8v2.058h2.855v1.584h-3.331  c-0.598,0.016-1.095-0.457-1.11-1.055V8.663C9.199,8.065,9.672,7.569,10.27,7.554h3.385L13.654,9.136L13.654,9.136z M19.206,15.312  c-0.707,1.647-1.974,1.319-2.541,0l-2.064-7.757h1.745l1.592,6.092l1.584-6.092h1.745L19.206,15.312L19.206,15.312z"/>
  </symbol> 
  <!-- Discord Icon -->
  <symbol id="discord" viewBox="0 0 24 24">
    <circle cx="12" cy="12" r="12" fill="#1877F2"/>
	  <path fill="#fff" d="M20.317,4.37c-1.53-0.702-3.17-1.219-4.885-1.515c-0.031-0.006-0.062,0.009-0.079,0.037   c-0.211,0.375-0.445,0.865-0.608,1.249c-1.845-0.276-3.68-0.276-5.487,0C9.095,3.748,8.852,3.267,8.641,2.892   C8.624,2.864,8.593,2.85,8.562,2.855C6.848,3.15,5.208,3.667,3.677,4.37C3.664,4.375,3.652,4.385,3.645,4.397   c-3.111,4.648-3.964,9.182-3.546,13.66c0.002,0.022,0.014,0.043,0.031,0.056c2.053,1.508,4.041,2.423,5.993,3.029   c0.031,0.01,0.064-0.002,0.084-0.028c0.462-0.63,0.873-1.295,1.226-1.994c0.021-0.041,0.001-0.09-0.042-0.106   c-0.653-0.248-1.274-0.55-1.872-0.892c-0.047-0.028-0.051-0.095-0.008-0.128c0.126-0.094,0.252-0.192,0.372-0.291   c0.022-0.018,0.052-0.022,0.078-0.01c3.928,1.793,8.18,1.793,12.061,0c0.026-0.012,0.056-0.009,0.079,0.01   c0.12,0.099,0.246,0.198,0.373,0.292c0.044,0.032,0.041,0.1-0.007,0.128c-0.598,0.349-1.219,0.645-1.873,0.891   c-0.043,0.016-0.061,0.066-0.041,0.107c0.36,0.698,0.772,1.363,1.225,1.993c0.019,0.027,0.053,0.038,0.084,0.029   c1.961-0.607,3.95-1.522,6.002-3.029c0.018-0.013,0.029-0.033,0.031-0.055c0.5-5.177-0.838-9.674-3.548-13.66   C20.342,4.385,20.33,4.375,20.317,4.37z M8.02,15.331c-1.183,0-2.157-1.086-2.157-2.419s0.955-2.419,2.157-2.419   c1.211,0,2.176,1.095,2.157,2.419C10.177,14.246,9.221,15.331,8.02,15.331z M15.995,15.331c-1.182,0-2.157-1.086-2.157-2.419   s0.955-2.419,2.157-2.419c1.211,0,2.176,1.095,2.157,2.419C18.152,14.246,17.206,15.331,15.995,15.331z"/>
  </symbol> 
  <!-- Facebook Icon -->
  <symbol id="facebook" viewBox="0 0 24 24">
    <circle cx="12" cy="12" r="12" fill="#fff" stroke="none"/>
  	<path fill="#155dfc" stroke="none" d="M24,12.073c0,5.989-4.394,10.954-10.13,11.855v-8.363h2.789l0.531-3.46H13.87V9.86c0-0.947,0.464-1.869,1.95-1.869h1.509   V5.045c0,0-1.37-0.234-2.679-0.234c-2.734,0-4.52,1.657-4.52,4.656v2.637H7.091v3.46h3.039v8.363C4.395,23.025,0,18.061,0,12.073   c0-6.627,5.373-12,12-12S24,5.445,24,12.073z"/>
  </symbol>
  <!-- Fonts Icon -->
  <symbol id="fonts" viewBox="0 0 24 24">
	  <path d="M19.75,0.3H4.25C1.903,0.3,0,2.203,0,4.55V19.45c0,2.347,1.903,4.25,4.25,4.25h15.5c2.347,0,4.25-1.903,4.25-4.25V4.55   C24,2.203,22.097,0.3,19.75,0.3z M16.514,6.911c-0.242,0-0.363-0.182-0.439-0.439c-0.257-0.97-0.591-1.257-0.787-1.257   c-0.197,0-0.5,0.364-0.833,1.121c-0.44,0.954-0.735,1.993-1.008,2.993l1.732-0.002c0.106,0.212,0.02,0.651-0.238,0.772h-1.712   c-0.56,1.878-1.032,3.688-1.592,5.46c-0.318,1-0.666,1.954-1.106,2.559c-0.485,0.681-1.393,1.333-2.484,1.333   c-0.772,0-1.53-0.363-1.53-1.166c0-0.5,0.515-0.969,0.924-0.969c0.176-0.007,0.341,0.087,0.424,0.242   c0.379,0.681,0.742,1.075,0.909,1.075c0.167,0,0.303-0.227,0.576-1.211l1.988-7.322l-1.43-0.002   C9.802,9.78,9.953,9.399,10.134,9.323h1.424c0.273-0.878,0.594-1.776,1.048-2.579c0.681-1.226,1.772-2.196,3.271-2.196   c1.136,0,1.606,0.546,1.606,1.242C17.468,6.533,16.817,6.911,16.514,6.911z"/>
  </symbol> 
  <!-- GitHub Icon -->
  <symbol id="github" viewBox="0 0 1024 1024">
    <path stroke="none" fill-rule="evenodd" clip-rule="evenodd" d="M8 0C3.58 0 0 3.58 0 8C0 11.54 2.29 14.53 5.47 15.59C5.87 15.66 6.02 15.42 6.02 15.21C6.02 15.02 6.01 14.39 6.01 13.72C4 14.09 3.48 13.23 3.32 12.78C3.23 12.55 2.84 11.84 2.5 11.65C2.22 11.5 1.82 11.13 2.49 11.12C3.12 11.11 3.57 11.7 3.72 11.94C4.44 13.15 5.59 12.81 6.05 12.6C6.12 12.08 6.33 11.73 6.56 11.53C4.78 11.33 2.92 10.64 2.92 7.58C2.92 6.71 3.23 5.99 3.74 5.43C3.66 5.23 3.38 4.41 3.82 3.31C3.82 3.31 4.49 3.1 6.02 4.13C6.66 3.95 7.34 3.86 8.02 3.86C8.7 3.86 9.38 3.95 10.02 4.13C11.55 3.09 12.22 3.31 12.22 3.31C12.66 4.41 12.38 5.23 12.3 5.43C12.81 5.99 13.12 6.7 13.12 7.58C13.12 10.65 11.25 11.33 9.47 11.53C9.76 11.78 10.01 12.26 10.01 13.01C10.01 14.08 10 14.94 10 15.21C10 15.42 10.15 15.67 10.55 15.59C13.71 14.53 16 11.53 16 8C16 3.58 12.42 0 8 0Z" transform="scale(64)" fill="currentColor"/>
  </symbol>
  <!-- GitLab Icon -->
  <symbol id="gitlab" viewBox="0 0 24 24">
	  <path fill="rgb(252, 109, 38)" d="M23.93,13.344c0,0-1.281-3.944-1.281-3.945l-2.541-7.824c-0.138-0.408-0.504-0.671-0.934-0.671c-0.002,0-0.004,0-0.006,0   c-0.43,0.002-0.794,0.268-0.927,0.676l-2.417,7.442H8.18L5.759,1.581C5.626,1.173,5.262,0.907,4.831,0.905   c-0.002,0-0.004,0-0.006,0c-0.43,0-0.796,0.263-0.936,0.677c0,0-2.535,7.819-2.535,7.819L0.07,13.344   c-0.19,0.586,0.016,1.223,0.514,1.585c0,0,11.095,8.061,11.095,8.061c0.109,0.079,0.249,0.116,0.383,0.1   c0.091-0.011,0.182-0.046,0.258-0.1l11.097-8.061C23.914,14.568,24.12,13.931,23.93,13.344z M21.016,10.113l-7.542,9.663   l3.141-9.663H21.016z M12,20.788l-0.273-0.842l-3.192-9.833h6.936L12,20.788z M7.389,10.113l3.137,9.663l-7.537-9.663H7.389z    M19.176,2.231l2.206,6.793h-4.413L19.176,2.231z M4.825,2.231l2.21,6.793H2.622L4.825,2.231z M1.225,14.049   c-0.115-0.084-0.163-0.232-0.119-0.368l0.968-2.97l1.409,1.806l5.711,7.321L1.225,14.049z M22.776,14.049l-7.968,5.788l2.26-2.896   l4.862-6.23l0.964,2.969C22.938,13.817,22.891,13.965,22.776,14.049z"/>
  </symbol>
  <!-- HTML Icon -->
  <symbol id="html" viewBox="0 0 452 520">
    <path fill="#e34f26" d="M41 460L0 0h451l-41 460-185 52" />
    <path fill="#ef652a" d="M226 472l149-41 35-394H226" />
    <path fill="#ecedee" d="M226 208h-75l-5-58h80V94H84l15 171h127zm0 147l-64-17-4-45h-56l7 89 117 32z"/>
    <path fill="#fff" d="M226 265h69l-7 73-62 17v59l115-32 16-174H226zm0-171v56h136l5-56z"/>
  </symbol>
  <!-- Instagram Icon -->
  <symbol id="instagram" viewBox="0 0 256 256">
    <path fill="#fff" stroke="none" d="M128 23.064c34.177 0 38.225.13 51.722.745 12.48.57 19.258 2.655 23.769 4.408 5.974 2.322 10.238 5.096 14.717 9.575 4.48 4.479 7.253 8.743 9.575 14.717 1.753 4.511 3.838 11.289 4.408 23.768.615 13.498.745 17.546.745 51.723 0 34.178-.13 38.226-.745 51.723-.57 12.48-2.655 19.257-4.408 23.768-2.322 5.974-5.096 10.239-9.575 14.718-4.479 4.479-8.743 7.253-14.717 9.574-4.511 1.753-11.289 3.839-23.769 4.408-13.495.616-17.543.746-51.722.746-34.18 0-38.228-.13-51.723-.746-12.48-.57-19.257-2.655-23.768-4.408-5.974-2.321-10.239-5.095-14.718-9.574-4.479-4.48-7.253-8.744-9.574-14.718-1.753-4.51-3.839-11.288-4.408-23.768-.616-13.497-.746-17.545-.746-51.723 0-34.177.13-38.225.746-51.722.57-12.48 2.655-19.258 4.408-23.769 2.321-5.974 5.095-10.238 9.574-14.717 4.48-4.48 8.744-7.253 14.718-9.575 4.51-1.753 11.289-3.838 23.768-4.408 13.497-.615 17.545-.745 51.723-.745M128 0C93.237 0 88.878.147 75.226.77c-13.625.622-22.93 2.786-31.071 5.95-8.418 3.271-15.556 7.648-22.672 14.764C14.367 28.6 9.991 35.738 6.72 44.155 3.555 52.297 1.392 61.602.77 75.226.147 88.878 0 93.237 0 128c0 34.763.147 39.122.77 52.774c.622 13.625 2.785 22.93 5.95 31.071 3.27 8.417 7.647 15.556 14.763 22.672 7.116 7.116 14.254 11.492 22.672 14.763 8.142 3.165 17.446 5.328 31.07 5.95 13.653.623 18.012.77 52.775.77s39.122-.147 52.774-.77c13.624-.622 22.929-2.785 31.07-5.95 8.418-3.27 15.556-7.647 22.672-14.763 7.116-7.116 11.493-14.254 14.764-22.672 3.164-8.142 5.328-17.446 5.95-31.07.623-13.653.77-18.012.77-52.775s-.147-39.122-.77-52.774c-.622-13.624-2.786-22.929-5.95-31.07-3.271-8.418-7.648-15.556-14.764-22.672C227.4 14.368 220.262 9.99 211.845 6.72c-8.142-3.164-17.447-5.328-31.071-5.95C167.122.147 162.763 0 128 0Zm0 62.27C91.698 62.27 62.27 91.7 62.27 128c0 36.302 29.428 65.73 65.73 65.73 36.301 0 65.73-29.428 65.73-65.73 0-36.301-29.429-65.73-65.73-65.73Zm0 108.397c-23.564 0-42.667-19.103-42.667-42.667S104.436 85.333 128 85.333s42.667 19.103 42.667 42.667-19.103 42.667-42.667 42.667Zm83.686-110.994c0 8.484-6.876 15.36-15.36 15.36-8.483 0-15.36-6.876-15.36-15.36 0-8.483 6.877-15.36 15.36-15.36 8.484 0 15.36 6.877 15.36 15.36Z"/>
  </symbol>
  <!-- Java Icon -->
  <symbol id="java" viewBox="0 0 24 24">
    <circle cx="12" cy="12" r="12" fill="#5fa2ba"/>
	  <path fill="#fff" d="M5.566,14.276c0-0.664,2.521-1.037,3.694-1.128l0.112,0.065c-0.451,0.082-2.26,0.401-2.26,0.817   c0,0.453,2.775,0.75,4.385,0.75c2.735,0,4.595-0.414,5.095-0.55l0.7,0.407c-0.479,0.235-2.536,0.849-5.795,0.849   C7.876,15.486,5.566,14.778,5.566,14.276L5.566,14.276z M11.085,23.604c-1.433,0.012-3.183-0.106-4.655-0.353l-0.137,0.078   c1.467,0.43,3.509,0.69,5.752,0.67c4.406-0.038,7.978-1.131,8.048-2.446l-0.051-0.03C19.747,21.884,17.842,23.545,11.085,23.604   L11.085,23.604z M11.46,22.757c3.606-0.032,7.641-0.737,7.63-1.923c-0.002-0.215-0.142-0.363-0.264-0.451l-0.059,0.034   c-0.333,0.919-3.15,1.598-7.313,1.634c-2.686,0.024-6.406-0.62-6.413-1.363c-0.006-0.746,1.763-1.155,1.763-1.155L6.679,19.46   c-1.185,0.163-3.37,0.731-3.363,1.551C3.326,22.196,8.346,22.784,11.46,22.757L11.46,22.757z M19.584,14.593   c-0.073,1.391-1.358,2.258-2.643,2.989l0.116,0.067c1.371-0.386,3.817-1.509,3.615-3.235c-0.101-0.86-0.888-1.476-1.913-1.476   c-0.32,0-0.604,0.056-0.834,0.126l-0.001,0.002l-0.049,0.122C18.793,13.011,19.631,13.681,19.584,14.593L19.584,14.593z    M8.991,18.727c-0.418,0.083-1.33,0.293-1.33,0.736c0,0.614,1.951,1.085,3.835,1.085c2.592,0,3.654-0.667,3.702-0.702l-1.078-0.624   c-0.458,0.109-1.231,0.28-2.621,0.28c-1.552,0-2.563-0.265-2.563-0.556c0-0.062,0.039-0.135,0.11-0.189L8.991,18.727z    M15.359,16.656C14.763,16.825,13.42,17.1,11.5,17.1c-1.884,0-3.424-0.322-3.429-0.702c-0.004-0.253,0.302-0.363,0.302-0.363   l-0.054-0.031c-0.903,0.159-1.741,0.406-1.736,0.775c0.008,0.67,2.57,1.172,4.913,1.172c1.992,0,3.905-0.334,4.768-0.772   L15.359,16.656z"/>
	  <path fill="#f0cc71" d="M14.845,1.717c0,3.693-5.06,5.106-5.06,7.731c0,1.843,1.222,2.999,1.899,3.73l-0.055,0.032   c-0.854-0.534-3.1-1.876-3.1-4.093c0-3.112,5.813-4.599,5.813-8.134c0-0.435-0.064-0.769-0.11-0.948L14.29,0   C14.474,0.231,14.845,0.81,14.845,1.717L14.845,1.717z M16.509,4.987l-0.061-0.035c-1.101,0.369-4.491,1.707-4.491,4.202   c0,1.411,1.378,2.193,1.378,3.516c0,0.472-0.267,0.915-0.483,1.179l0.109,0.063c0.574-0.373,1.589-1.18,1.589-2.222   c0-0.883-1.221-1.943-1.221-3.078C13.328,6.825,15.685,5.423,16.509,4.987L16.509,4.987z"/>
  </symbol>
  <!-- JavaScript Icon -->
  <symbol id="javascript" viewBox="0 0 24 24">
    <path fill="#fff" d="M16.122,18.75a2.456,2.456,0,0,0,2.225,1.37c.934,0,1.531-.467,1.531-1.113,0-.773-.613-1.047-1.642-1.5l-.564-.242c-1.627-.693-2.708-1.562-2.708-3.4a3.014,3.014,0,0,1,3.3-2.979A3.332,3.332,0,0,1,21.474,12.7l-1.756,1.127a1.534,1.534,0,0,0-1.451-.966.982.982,0,0,0-1.08.966c0,.677.419.951,1.387,1.37l.564.241c1.916.822,3,1.66,3,3.543,0,2.031-1.595,3.143-3.737,3.143a4.333,4.333,0,0,1-4.11-2.306Zm-7.967.2c.354.628.677,1.16,1.451,1.16.741,0,1.209-.29,1.209-1.418V11.02H13.07v7.7a3.063,3.063,0,0,1-3.368,3.4,3.5,3.5,0,0,1-3.383-2.06Z"/>
  </symbol>
  <!-- LinkedIn Icon -->
  <symbol id="linkedin" viewBox="0 0 256 256">
    <path stroke="none" d="M218.123 218.127h-37.931v-59.403c0-14.165-.253-32.4-19.728-32.4-19.756 0-22.779 15.434-22.779 31.369v60.43h-37.93V95.967h36.413v16.694h.51a39.907 39.907 0 0 1 35.928-19.733c38.445 0 45.533 25.288 45.533 58.186l-.016 67.013ZM56.955 79.27c-12.157.002-22.014-9.852-22.016-22.009-.002-12.157 9.851-22.014 22.008-22.016 12.157-.003 22.014 9.851 22.016 22.008A22.013 22.013 0 0 1 56.955 79.27m18.966 138.858H37.95V95.967h37.97v122.16ZM237.033.018H18.89C8.58-.098.125 8.161-.001 18.471v219.053c.122 10.315 8.576 18.582 18.89 18.474h218.144c10.336.128 18.823-8.139 18.966-18.474V18.454c-.147-10.33-8.635-18.588-18.966-18.453" fill="#0A66C2"/>
  </symbol>
  <!-- MySql Icon -->
  <symbol id="mysql" viewBox="0 0 24 24">
    <path style="fill-rule:evenodd;clip-rule:evenodd;" fill="#0074a3" d="M5.457,4.257c-0.277,0-0.472,0.033-0.669,0.082v0.033H4.82   c0.132,0.261,0.36,0.441,0.522,0.67c0.131,0.261,0.246,0.521,0.376,0.783C5.734,5.808,5.75,5.791,5.75,5.791   c0.23-0.162,0.344-0.424,0.344-0.816C5.996,4.86,5.98,4.747,5.898,4.632C5.8,4.469,5.588,4.388,5.457,4.257L5.457,4.257z"/>
    <path style="fill-rule:evenodd;clip-rule:evenodd;" fill="#0074a3" d="M22.107,18.442c-1.307-0.033-2.318,0.098-3.167,0.457   c-0.245,0.098-0.636,0.098-0.67,0.408c0.131,0.13,0.147,0.342,0.262,0.523c0.196,0.326,0.537,0.766,0.848,0.996   c0.343,0.261,0.686,0.521,1.045,0.75c0.636,0.393,1.355,0.621,1.974,1.013c0.36,0.228,0.718,0.522,1.079,0.767   c0.179,0.13,0.292,0.343,0.521,0.424V23.73c-0.115-0.146-0.147-0.359-0.261-0.523c-0.163-0.162-0.327-0.31-0.49-0.472   c-0.474-0.637-1.062-1.191-1.697-1.648c-0.523-0.36-1.666-0.85-1.877-1.452c0,0-0.017-0.017-0.033-0.033   c0.359-0.033,0.784-0.164,1.127-0.263c0.554-0.146,1.06-0.113,1.631-0.26c0.262-0.066,0.523-0.148,0.785-0.228v-0.148   c-0.295-0.293-0.506-0.686-0.817-0.963c-0.832-0.718-1.747-1.419-2.693-2.008c-0.507-0.327-1.16-0.538-1.699-0.816   c-0.195-0.098-0.521-0.146-0.636-0.311c-0.294-0.359-0.458-0.832-0.67-1.257c-0.473-0.897-0.931-1.892-1.338-2.84   c-0.294-0.636-0.473-1.272-0.832-1.86c-1.682-2.775-3.51-4.456-6.317-6.105C7.579,2.2,6.861,2.053,6.094,1.874   C5.685,1.856,5.278,1.825,4.87,1.809C4.608,1.694,4.346,1.384,4.118,1.237c-0.931-0.587-3.329-1.86-4.015-0.179   c-0.441,1.062,0.653,2.106,1.029,2.645c0.277,0.375,0.637,0.8,0.832,1.224C2.078,5.204,2.11,5.498,2.225,5.791   c0.261,0.718,0.505,1.518,0.849,2.188C3.253,8.322,3.449,8.682,3.677,8.99c0.132,0.181,0.36,0.261,0.409,0.556   C3.858,9.872,3.84,10.362,3.71,10.77c-0.587,1.845-0.359,4.13,0.474,5.484c0.261,0.408,0.881,1.306,1.714,0.963   c0.734-0.293,0.571-1.224,0.783-2.039c0.049-0.197,0.016-0.327,0.114-0.457v0.033c0.228,0.456,0.457,0.896,0.67,1.355   c0.506,0.799,1.387,1.632,2.123,2.186c0.391,0.295,0.701,0.8,1.191,0.98v-0.049h-0.032c-0.098-0.146-0.245-0.212-0.375-0.326   c-0.294-0.294-0.62-0.653-0.849-0.98c-0.685-0.914-1.29-1.926-1.828-2.971c-0.262-0.507-0.49-1.062-0.702-1.567   c-0.098-0.195-0.098-0.49-0.261-0.587c-0.246,0.359-0.604,0.669-0.783,1.109c-0.31,0.703-0.343,1.568-0.458,2.466   c-0.065,0.017-0.032,0-0.065,0.032c-0.522-0.13-0.701-0.669-0.898-1.125c-0.489-1.16-0.572-3.021-0.147-4.36   c0.114-0.342,0.605-1.419,0.408-1.746C4.689,8.859,4.363,8.682,4.184,8.436c-0.212-0.31-0.442-0.701-0.587-1.045   c-0.392-0.914-0.589-1.926-1.012-2.84c-0.196-0.425-0.54-0.866-0.816-1.257C1.458,2.853,1.115,2.543,0.87,2.021   c-0.081-0.18-0.195-0.474-0.065-0.669c0.032-0.131,0.098-0.18,0.229-0.213C1.245,0.96,1.85,1.188,2.061,1.286   C2.666,1.53,3.172,1.76,3.677,2.102c0.229,0.164,0.474,0.474,0.767,0.556h0.343c0.522,0.113,1.11,0.032,1.6,0.179   c0.864,0.277,1.648,0.685,2.35,1.126c2.138,1.355,3.901,3.282,5.092,5.583c0.196,0.375,0.279,0.718,0.458,1.109   c0.343,0.802,0.768,1.618,1.11,2.4c0.343,0.767,0.67,1.55,1.16,2.188c0.244,0.342,1.224,0.522,1.665,0.702   c0.326,0.146,0.832,0.277,1.126,0.456c0.555,0.342,1.109,0.735,1.632,1.111C21.241,17.708,22.058,18.115,22.107,18.442   L22.107,18.442z"/>
  </symbol>
  <!-- Node Icon -->
  <symbol id="node" viewBox="0 0 256 292">
    <defs>
      <linearGradient id="a" x1="68.188%" x2="27.823%" y1="17.487%" y2="89.755%"><stop offset="0%" stop-color="#41873F"/><stop offset="32.88%" stop-color="#418B3D"/><stop offset="63.52%" stop-color="#419637"/><stop offset="93.19%" stop-color="#3FA92D"/><stop offset="100%" stop-color="#3FAE2A"/></linearGradient>
      <linearGradient id="c" x1="43.277%" x2="159.245%" y1="55.169%" y2="-18.306%"><stop offset="13.76%" stop-color="#41873F"/><stop offset="40.32%" stop-color="#54A044"/><stop offset="71.36%" stop-color="#66B848"/><stop offset="90.81%" stop-color="#6CC04A"/></linearGradient>
      <linearGradient id="f" x1="-4.389%" x2="101.499%" y1="49.997%" y2="49.997%"><stop offset="9.192%" stop-color="#6CC04A"/><stop offset="28.64%" stop-color="#66B848"/><stop offset="59.68%" stop-color="#54A044"/><stop offset="86.24%" stop-color="#41873F"/></linearGradient>
      <path id="b" d="M134.923 1.832c-4.344-2.443-9.502-2.443-13.846 0L6.787 67.801C2.443 70.244 0 74.859 0 79.745v132.208c0 4.887 2.715 9.502 6.787 11.945l114.29 65.968c4.344 2.444 9.502 2.444 13.846 0l114.29-65.968c4.344-2.443 6.787-7.058 6.787-11.945V79.745c0-4.886-2.715-9.501-6.787-11.944L134.923 1.832Z"/>
      <path id="e" d="M134.923 1.832c-4.344-2.443-9.502-2.443-13.846 0L6.787 67.801C2.443 70.244 0 74.859 0 79.745v132.208c0 4.887 2.715 9.502 6.787 11.945l114.29 65.968c4.344 2.444 9.502 2.444 13.846 0l114.29-65.968c4.344-2.443 6.787-7.058 6.787-11.945V79.745c0-4.886-2.715-9.501-6.787-11.944L134.923 1.832Z"/>
    </defs>
    <path fill="url(#a)" d="M134.923 1.832c-4.344-2.443-9.502-2.443-13.846 0L6.787 67.801C2.443 70.244 0 74.859 0 79.745v132.208c0 4.887 2.715 9.502 6.787 11.945l114.29 65.968c4.344 2.444 9.502 2.444 13.846 0l114.29-65.968c4.344-2.443 6.787-7.058 6.787-11.945V79.745c0-4.886-2.715-9.501-6.787-11.944L134.923 1.832Z"/>
    <mask id="d" fill="#fff"><use xlink:href="#b"/></mask>
    <path fill="url(#c)" d="M249.485 67.8 134.65 1.833c-1.086-.542-2.443-1.085-3.529-1.357L2.443 220.912c1.086 1.357 2.444 2.443 3.8 3.258l114.834 65.968c3.258 1.9 7.059 2.443 10.588 1.357L252.47 70.515c-.815-1.086-1.9-1.9-2.986-2.714Z" mask="url(#d)"/>
    <mask id="g" fill="#fff"><use xlink:href="#e"/></mask>
    <path fill="url(#f)" d="M249.756 223.898c3.258-1.9 5.701-5.158 6.787-8.687L130.579.204c-3.258-.543-6.787-.272-9.773 1.628L6.786 67.53l122.979 224.238c1.628-.272 3.529-.815 5.158-1.63l114.833-66.239Z" mask="url(#g)"/>
  </symbol>
  <!-- PHP Icon -->
  <symbol id="php" viewBox="0 0 24 24">
    <path d="M1.899,8.507h3.559C6.503,8.516,7.26,8.817,7.73,9.41c0.469,0.593,0.624,1.403,0.465,2.43   c-0.062,0.469-0.199,0.93-0.412,1.381c-0.204,0.452-0.487,0.859-0.85,1.222c-0.443,0.46-0.916,0.753-1.421,0.877   c-0.505,0.124-1.027,0.186-1.567,0.186H2.351L1.846,18.03H0L1.899,8.507L1.899,8.507 M3.453,10.021l-0.797,3.984   c0.053,0.009,0.106,0.013,0.159,0.013c0.062,0,0.124,0,0.186,0c0.85,0.009,1.558-0.075,2.125-0.252   c0.567-0.186,0.947-0.832,1.142-1.939c0.159-0.93,0-1.465-0.478-1.607c-0.469-0.142-1.058-0.208-1.766-0.199   c-0.106,0.009-0.208,0.013-0.305,0.013c-0.088,0-0.181,0-0.279,0L3.453,10.021"/>
    <path d="M10.297,5.97h1.833l-0.518,2.537h1.647c0.903,0.018,1.576,0.204,2.019,0.558c0.452,0.354,0.584,1.027,0.398,2.019   l-0.89,4.423h-1.859l0.85-4.223c0.088-0.443,0.062-0.757-0.08-0.943c-0.142-0.186-0.447-0.279-0.916-0.279l-1.474-0.013   l-1.089,5.458H8.385L10.297,5.97L10.297,5.97"/>
    <path d="M17.644,8.507h3.559c1.045,0.009,1.802,0.31,2.271,0.903c0.469,0.593,0.624,1.403,0.465,2.43   c-0.062,0.469-0.199,0.93-0.412,1.381c-0.204,0.452-0.487,0.859-0.85,1.222c-0.443,0.46-0.916,0.753-1.421,0.877   c-0.505,0.124-1.027,0.186-1.567,0.186h-1.594l-0.505,2.523h-1.846L17.644,8.507L17.644,8.507 M19.198,10.021l-0.797,3.984   c0.053,0.009,0.106,0.013,0.159,0.013c0.062,0,0.124,0,0.186,0c0.85,0.009,1.558-0.075,2.125-0.252   c0.567-0.186,0.947-0.832,1.142-1.939c0.159-0.93,0-1.465-0.478-1.607c-0.469-0.142-1.058-0.208-1.766-0.199   c-0.106,0.009-0.208,0.013-0.305,0.013c-0.088,0-0.181,0-0.279,0L19.198,10.021"/>
  </symbol>
  <!-- Python Icon -->
  <symbol id="python" viewBox="0 0 24 24">
		<path id="path1948_00000134962089881649523420000009399677824023126944_" fill="#2f5bd3" d="M11.859,0C10.88,0.005,9.945,0.088,9.123,0.234    C6.7,0.662,6.26,1.558,6.26,3.21v2.182h5.726V6.12H6.26H4.111c-1.664,0-3.121,1-3.577,2.903c-0.526,2.181-0.549,3.542,0,5.819    c0.407,1.695,1.379,2.903,3.043,2.903h1.969v-2.616c0-1.89,1.635-3.557,3.577-3.557h5.719c1.592,0,2.863-1.311,2.863-2.91V3.21    c0-1.552-1.309-2.717-2.863-2.976C13.858,0.07,12.837-0.004,11.859,0z M8.762,1.755c0.591,0,1.074,0.491,1.074,1.094    c0,0.601-0.483,1.088-1.074,1.088c-0.594,0-1.074-0.486-1.074-1.088C7.688,2.246,8.169,1.755,8.762,1.755z"/>
		<path id="path1950_00000083807539188134144630000011128538031068007323_" fill="#f59e0b" d="M18.418,6.12v2.543c0,1.971-1.671,3.63-3.577,3.63    H9.123c-1.567,0-2.863,1.341-2.863,2.91v5.452c0,1.552,1.349,2.464,2.863,2.91c1.812,0.533,3.55,0.629,5.719,0    c1.441-0.417,2.863-1.257,2.863-2.91v-2.182h-5.719v-0.727h5.719h2.863c1.664,0,2.284-1.161,2.863-2.903    c0.598-1.794,0.572-3.518,0-5.819c-0.411-1.657-1.197-2.903-2.863-2.903H18.418z M15.202,19.927c0.594,0,1.074,0.486,1.074,1.088    c0,0.604-0.481,1.094-1.074,1.094c-0.591,0-1.074-0.491-1.074-1.094C14.128,20.413,14.611,19.927,15.202,19.927z"/>
  </symbol>
  <!-- React Icon -->
  <symbol id="react" viewBox="0 0 569 512">
    <g fill="none" fill-rule="evenodd">
      <g transform="translate(-227, -256)" fill="#58C4DC" fill-rule="nonzero">
        <g transform="translate(227, 256)">
          <path d="M285.5,201 C255.400481,201 231,225.400481 231,255.5 C231,285.599519 255.400481,310 285.5,310 C315.599519,310 340,285.599519 340,255.5 C340,225.400481 315.599519,201 285.5,201" id="Path"></path>
          <path d="M568.959856,255.99437 C568.959856,213.207656 529.337802,175.68144 466.251623,150.985214 C467.094645,145.423543 467.85738,139.922107 468.399323,134.521063 C474.621631,73.0415145 459.808523,28.6686204 426.709856,9.5541429 C389.677085,-11.8291748 337.36955,3.69129898 284.479928,46.0162134 C231.590306,3.69129898 179.282771,-11.8291748 142.25,9.5541429 C109.151333,28.6686204 94.3382249,73.0415145 100.560533,134.521063 C101.102476,139.922107 101.845139,145.443621 102.708233,151.02537 C97.4493791,153.033193 92.2908847,155.161486 87.3331099,157.39017 C31.0111824,182.708821 0,217.765415 0,255.99437 C0,298.781084 39.6220545,336.307301 102.708233,361.003527 C101.845139,366.565197 101.102476,372.066633 100.560533,377.467678 C94.3382249,438.947226 109.151333,483.32012 142.25,502.434597 C153.629683,508.887578 166.52439,512.186771 179.603923,511.991836 C210.956328,511.991836 247.567589,495.487529 284.479928,465.972527 C321.372196,495.487529 358.003528,511.991836 389.396077,511.991836 C402.475265,512.183856 415.36922,508.884856 426.75,502.434597 C459.848667,483.32012 474.661775,438.947226 468.439467,377.467678 C467.897524,372.066633 467.134789,366.565197 466.291767,361.003527 C529.377946,336.347457 569,298.761006 569,255.99437 M389.155214,27.1025182 C397.565154,26.899606 405.877839,28.9368502 413.241569,33.0055186 C436.223966,46.2772304 446.540955,82.2775015 441.522965,131.770345 C441.181741,135.143488 440.780302,138.556788 440.298575,141.990165 C414.066922,134.08804 387.205771,128.452154 360.010724,125.144528 C343.525021,103.224055 325.192524,82.7564475 305.214266,63.9661533 C336.586743,39.7116483 366.032313,27.1025182 389.135142,27.1025182 M378.356498,310.205598 C368.204912,327.830733 357.150626,344.919965 345.237759,361.405091 C325.045049,363.479997 304.758818,364.51205 284.459856,364.497299 C264.167589,364.51136 243.888075,363.479308 223.702025,361.405091 C211.820914,344.919381 200.80007,327.83006 190.683646,310.205598 C180.532593,292.629285 171.306974,274.534187 163.044553,255.99437 C171.306974,237.454554 180.532593,219.359455 190.683646,201.783142 C200.784121,184.229367 211.770999,167.201087 223.601665,150.764353 C243.824636,148.63809 264.145559,147.579168 284.479928,147.591877 C304.772146,147.579725 325.051559,148.611772 345.237759,150.68404 C357.109048,167.14607 368.136094,184.201112 378.27621,201.783142 C388.419418,219.363718 397.644825,237.458403 405.915303,255.99437 C397.644825,274.530337 388.419418,292.625022 378.27621,310.205598 M419.724813,290.127366 C426.09516,307.503536 431.324985,325.277083 435.380944,343.334682 C417.779633,348.823635 399.836793,353.149774 381.668372,356.285142 C388.573127,345.871232 395.263781,335.035679 401.740334,323.778483 C408.143291,312.655143 414.144807,301.431411 419.805101,290.207679 M246.363271,390.377981 C258.848032,391.140954 271.593728,391.582675 284.5,391.582675 C297.406272,391.582675 310.232256,391.140954 322.737089,390.377981 C310.880643,404.583418 298.10766,417.997563 284.5,430.534446 C270.921643,417.999548 258.18192,404.585125 246.363271,390.377981 Z M187.311556,356.244986 C169.137286,353.123646 151.187726,348.810918 133.578912,343.334682 C137.618549,325.305649 142.828222,307.559058 149.174827,290.207679 C154.754833,301.431411 160.736278,312.655143 167.239594,323.778483 C173.74291,334.901824 180.467017,345.864539 187.311556,356.285142 M149.174827,221.760984 C142.850954,204.473938 137.654787,186.794745 133.619056,168.834762 C151.18418,163.352378 169.085653,159.013101 187.211197,155.844146 C180.346585,166.224592 173.622478,176.986525 167.139234,188.210257 C160.65599,199.433989 154.734761,210.517173 149.074467,221.760984 M322.616657,121.590681 C310.131896,120.827708 297.3862,120.385987 284.379568,120.385987 C271.479987,120.385987 258.767744,120.787552 246.242839,121.590681 C258.061488,107.383537 270.801211,93.9691137 284.379568,81.4342157 C297.99241,93.9658277 310.765727,107.380324 322.616657,121.590681 Z M401.70019,188.210257 C395.196875,176.939676 388.472767,166.09743 381.527868,155.68352 C399.744224,158.819049 417.734224,163.151949 435.380944,168.654058 C431.331963,186.680673 426.122466,204.426664 419.785029,221.781062 C414.205023,210.55733 408.203506,199.333598 401.720262,188.230335 M127.517179,131.790423 C122.438973,82.3176579 132.816178,46.2973086 155.778503,33.0255968 C163.144699,28.9632474 171.455651,26.9264282 179.864858,27.1225964 C202.967687,27.1225964 232.413257,39.7317265 263.785734,63.9862316 C243.794133,82.7898734 225.448298,103.270812 208.949132,125.204763 C181.761691,128.528025 154.90355,134.14313 128.661281,141.990165 C128.199626,138.556788 127.778115,135.163566 127.456963,131.790423 M98.4529773,182.106474 C101.54406,180.767925 104.695358,179.429376 107.906872,178.090828 C114.220532,204.735668 122.781793,230.7969 133.498624,255.99437 C122.761529,281.241316 114.193296,307.357063 107.8868,334.058539 C56.7434387,313.076786 27.0971497,284.003505 27.0971497,255.99437 C27.0971497,229.450947 53.1907013,202.526037 98.4529773,182.106474 Z M155.778503,478.963143 C132.816178,465.691432 122.438973,429.671082 127.517179,380.198317 C127.838331,376.825174 128.259842,373.431953 128.721497,369.978497 C154.953686,377.878517 181.814655,383.514365 209.009348,386.824134 C225.500295,408.752719 243.832321,429.233234 263.805806,448.042665 C220.069,481.834331 180.105722,492.97775 155.838719,478.963143 M441.502893,380.198317 C446.520883,429.691161 436.203894,465.691432 413.221497,478.963143 C388.974566,493.017906 348.991216,481.834331 305.274481,448.042665 C325.241364,429.232737 343.566681,408.752215 360.050868,386.824134 C387.245915,383.516508 414.107066,377.880622 440.338719,369.978497 C440.820446,373.431953 441.221885,376.825174 441.563109,380.198317 M461.193488,334.018382 C454.869166,307.332523 446.294494,281.231049 435.561592,255.99437 C446.289797,230.744081 454.857778,204.629101 461.173416,177.930202 C512.216417,198.911955 541.942994,227.985236 541.942994,255.99437 C541.942994,284.003505 512.296705,313.076786 461.153344,334.058539" id="Shape"></path>
        </g>
      </g>
    </g>
  </symbol>
  <!-- Strava Icon -->
  <symbol id="strava" width="512" height="512" style="enable-background:new 0 0 512 512"><path d="M226.172 26.001 90.149 288.345h80.141l55.882-104.309 55.433 104.309h79.511z" style="fill:#f50"/><path d="m361.116 288.345-39.441 79.241-40.07-79.241h-60.734l100.804 197.654 100.176-197.654z" style="fill:#ffaf8a"/></symbol>
  <!-- Telegram Icon -->
  <symbol id="telegram" viewBox="0 0 24 24">
	  <path style="fill-rule:evenodd;clip-rule:evenodd;" fill="#0088cc" d="M12,0C5.373,0,0,5.373,0,12s5.373,12,12,12s12-5.373,12-12S18.627,0,12,0z    M17.562,8.161c-0.18,1.897-0.962,6.502-1.359,8.627c-0.168,0.9-0.5,1.201-0.82,1.23c-0.697,0.064-1.226-0.461-1.901-0.903   c-1.056-0.692-1.653-1.123-2.678-1.799c-1.185-0.781-0.417-1.21,0.258-1.911c0.177-0.184,3.247-2.977,3.307-3.23   c0.007-0.032,0.015-0.15-0.056-0.212s-0.174-0.041-0.248-0.024c-0.106,0.024-1.793,1.139-5.062,3.345   c-0.479,0.329-0.913,0.489-1.302,0.481c-0.428-0.009-1.252-0.242-1.865-0.442c-0.751-0.244-1.349-0.374-1.297-0.788   c0.027-0.216,0.324-0.437,0.892-0.663c3.498-1.524,5.831-2.529,6.998-3.015c3.333-1.386,4.025-1.627,4.477-1.635   C17.472,7.214,17.608,7.681,17.562,8.161z"/>
  </symbol>
  <!-- TikTok Icon -->
  <symbol id="tiktok" viewBox="0 0 24 24">
    <path fill="#fff" stroke="none" d="M22.465,9.866c-2.139,0-4.122-0.684-5.74-1.846v8.385c0,4.188-3.407,7.594-7.594,7.594c-1.618,0-3.119-0.51-4.352-1.376  c-1.958-1.375-3.242-3.649-3.242-6.218c0-4.188,3.407-7.595,7.595-7.595c0.348,0,0.688,0.029,1.023,0.074v0.977v3.235  c-0.324-0.101-0.666-0.16-1.023-0.16c-1.912,0-3.468,1.556-3.468,3.469c0,1.332,0.756,2.489,1.86,3.07  c0.481,0.253,1.028,0.398,1.609,0.398c1.868,0,3.392-1.486,3.462-3.338L12.598,0h4.126c0,0.358,0.035,0.707,0.097,1.047  c0.291,1.572,1.224,2.921,2.517,3.764c0.9,0.587,1.974,0.93,3.126,0.93V9.866z"/>
  </symbol>
  <!-- Twitch Icon -->
  <symbol id="twitch" viewBox="0 0 2400 2800">
    <path fill="#fff" d="m2200 1300-400 400h-400l-350 350v-350H600V200h1600z"/>
    <g fill="#9146ff">
      <path d="M500 0 0 500v1800h600v500l500-500h400l900-900V0H500zm1700 1300-400 400h-400l-350 350v-350H600V200h1600v1100z"/>
      <path d="M1700 550h200v600h-200zm-550 0h200v600h-200z"/>
    </g>
  </symbol>
  <!-- TypeScript Icon -->
  <symbol id="typescript" viewBox="0 0 256 256">
    <rect width="256" height="256" rx="20" fill="#3178C6"/>
    <path d="M150.518 200.475v27.62c4.492 2.302 9.805 4.028 15.938 5.179 6.133 1.151 12.597 1.726 19.393 1.726 6.622 0 12.914-.633 18.874-1.899 5.96-1.266 11.187-3.352 15.678-6.257 4.492-2.906 8.048-6.704 10.669-11.394 2.62-4.689 3.93-10.486 3.93-17.391 0-5.006-.749-9.394-2.246-13.163a30.748 30.748 0 0 0-6.479-10.055c-2.821-2.935-6.205-5.567-10.149-7.898-3.945-2.33-8.394-4.531-13.347-6.602-3.628-1.497-6.881-2.949-9.761-4.359-2.879-1.41-5.327-2.848-7.342-4.316-2.016-1.467-3.571-3.021-4.665-4.661-1.094-1.64-1.641-3.495-1.641-5.567 0-1.899.489-3.61 1.468-5.135s2.362-2.834 4.147-3.927c1.785-1.094 3.973-1.942 6.565-2.547 2.591-.604 5.471-.906 8.638-.906 2.304 0 4.737.173 7.299.518 2.563.345 5.14.877 7.732 1.597a53.669 53.669 0 0 1 7.558 2.719 41.7 41.7 0 0 1 6.781 3.797v-25.807c-4.204-1.611-8.797-2.805-13.778-3.582-4.981-.777-10.697-1.165-17.147-1.165-6.565 0-12.784.705-18.658 2.115-5.874 1.409-11.043 3.61-15.506 6.602-4.463 2.993-7.99 6.805-10.582 11.437-2.591 4.632-3.887 10.17-3.887 16.615 0 8.228 2.375 15.248 7.127 21.06 4.751 5.811 11.963 10.731 21.638 14.759a291.458 291.458 0 0 1 10.625 4.575c3.283 1.496 6.119 3.049 8.509 4.66 2.39 1.611 4.276 3.366 5.658 5.265 1.382 1.899 2.073 4.057 2.073 6.474a9.901 9.901 0 0 1-1.296 4.963c-.863 1.524-2.174 2.848-3.93 3.97-1.756 1.122-3.945 1.999-6.565 2.632-2.62.633-5.687.95-9.2.95-5.989 0-11.92-1.05-17.794-3.151-5.875-2.1-11.317-5.25-16.327-9.451Zm-46.036-68.733H140V109H41v22.742h35.345V233h28.137V131.742Z" fill="#FFF"/>
  </symbol>
  <!-- Verified Icon -->
  <symbol id="verified" viewBox="0 0 20 20">
    <path fill-rule="evenodd" d="M10 18a8 8 0 100-16 8 8 0 000 16zm3.707-8.707a1 1 0 00-1.414-1.414L9 11.172l-1.293-1.293a1 1 0 00-1.414 1.414l2 2a1 1 0 001.414 0l4-4z" clip-rule="evenodd" />
  </symbol>
  <!-- WhatsApp Icon -->
  <symbol id="whatsapp" viewBox="0 0 24 24">
    <circle cx="12" cy="12" r="12" fill="#25D366"/>
		<path fill="#fff" style="fill-rule:evenodd;clip-rule:evenodd;" d="M20.463,3.488C18.217,1.24,15.231,0.001,12.05,0    C5.495,0,0.16,5.334,0.157,11.892c-0.001,2.096,0.547,4.142,1.588,5.946L0.057,24l6.304-1.654    c1.737,0.948,3.693,1.447,5.683,1.448h0.005c6.554,0,11.89-5.335,11.893-11.893C23.944,8.724,22.708,5.735,20.463,3.488z     M12.05,21.785h-0.004c-1.774,0-3.513-0.477-5.031-1.378l-0.361-0.214l-3.741,0.981l0.999-3.648l-0.235-0.374    c-0.99-1.574-1.512-3.393-1.511-5.26c0.002-5.45,4.437-9.884,9.889-9.884c2.64,0,5.122,1.03,6.988,2.898    c1.866,1.869,2.893,4.352,2.892,6.993C21.932,17.351,17.498,21.785,12.05,21.785z M17.472,14.382    c-0.297-0.149-1.758-0.868-2.031-0.967c-0.272-0.099-0.47-0.149-0.669,0.148s-0.767,0.967-0.941,1.166    c-0.173,0.198-0.347,0.223-0.644,0.074c-0.297-0.149-1.255-0.462-2.39-1.475c-0.883-0.788-1.48-1.761-1.653-2.059    s-0.018-0.458,0.13-0.606c0.134-0.133,0.297-0.347,0.446-0.521C9.87,9.97,9.919,9.846,10.019,9.647    c0.099-0.198,0.05-0.372-0.025-0.521C9.919,8.978,9.325,7.515,9.078,6.92c-0.241-0.58-0.486-0.501-0.669-0.51    C8.236,6.401,8.038,6.4,7.839,6.4c-0.198,0-0.52,0.074-0.792,0.372c-0.272,0.298-1.04,1.017-1.04,2.479    c0,1.463,1.065,2.876,1.213,3.074c0.148,0.198,2.095,3.2,5.076,4.487c0.709,0.306,1.263,0.489,1.694,0.626    c0.712,0.226,1.36,0.194,1.872,0.118c0.571-0.085,1.758-0.719,2.006-1.413c0.248-0.694,0.248-1.29,0.173-1.413    C17.967,14.605,17.769,14.531,17.472,14.382z"/>
  </symbol>
  <!-- Windows Icon -->
  <symbol id="windows" viewBox="0 0 24 24">
	  <path id="rect65" fill="rgb(255, 16, 16)" d="M0,0h11.589v11.589H0V0z"/>
	  <path id="rect165" fill="#409e40" d="M12.411,11.589V0H24v11.589H12.411z"/>
	  <path id="rect413" fill="#1877f2" d="M0,12.411h11.589V24H0V12.411z"/>
	  <path id="rect415" fill="#f59e0b" d="M12.411,24V12.411H24V24H12.411z"/>
  </symbol>
  <!-- X (Twitter) Icon -->
  <symbol id="x" viewBox="0 0 1200 1227">
    <path fill="#fff" stroke="none" d="M714.163 519.284 1160.89 0h-105.86L667.137 450.887 357.328 0H0l468.492 681.821L0 1226.37h105.866l409.625-476.152 327.181 476.152H1200L714.137 519.284h.026ZM569.165 687.828l-47.468-67.894-377.686-540.24h162.604l304.797 435.991 47.468 67.894 396.2 566.721H892.476L569.165 687.854v-.026Z"/>
  </symbol>
  <!-- YouTube Icon -->
  <symbol id="youtube" viewBox="0 0 256 180">
    <path stroke="none" d="M250.346 28.075A32.18 32.18 0 0 0 227.69 5.418C207.824 0 127.87 0 127.87 0S47.912.164 28.046 5.582A32.18 32.18 0 0 0 5.39 28.24c-6.009 35.298-8.34 89.084.165 122.97a32.18 32.18 0 0 0 22.656 22.657c19.866 5.418 99.822 5.418 99.822 5.418s79.955 0 99.82-5.418a32.18 32.18 0 0 0 22.657-22.657c6.338-35.348 8.291-89.1-.164-123.134Z" fill="red"/>
    <path fill="#FFF" stroke="none" d="m102.421 128.06 66.328-38.418-66.328-38.418z"/>
  </symbol>
</svg>